<svg xmlns="http://www.w3.org/2000/svg" width="161" height="38" fill="none">
  <path
    fill="#857047"
    d="M.92 37.55v-7.41H5.6v1.4h-3v1.73h2.57v1.4H2.6v2.88H.92zM7.57 37.55v-7.41h1.68v6h2.93v1.41h-4.6zM16.65 37.7c-.97 0-1.7-.3-2.21-.86-.5-.57-.76-1.48-.76-2.72v-3.98h1.68v4.15c0 .73.11 1.24.33 1.52.22.3.54.44.96.44.41 0 .74-.15.96-.44.23-.28.34-.8.34-1.52v-4.15h1.62v3.98c0 1.24-.25 2.15-.75 2.72-.5.57-1.22.85-2.17.85zM21.97 37.55v-7.41h1.67v7.41h-1.67zM26.08 37.55v-7.41h2.09c.57 0 1.08.07 1.54.21a2.87 2.87 0 011.92 1.8c.17.47.26 1.02.26 1.66 0 .64-.09 1.2-.26 1.66-.18.47-.42.86-.74 1.17-.32.3-.7.54-1.15.69-.44.15-.93.22-1.48.22h-2.18zm1.67-1.35h.32c.32 0 .6-.04.86-.12.26-.09.48-.22.66-.4.18-.2.32-.44.42-.74.1-.3.16-.68.16-1.13 0-.44-.05-.8-.16-1.1a1.7 1.7 0 00-.42-.72c-.18-.18-.4-.31-.66-.39a3.06 3.06 0 00-.86-.11h-.32v4.71zM36.94 37.55v-7.41h2.68c.39 0 .76.03 1.1.11.35.08.65.2.9.39.27.17.47.4.62.7.16.3.23.67.23 1.1 0 .55-.12 1-.36 1.36-.24.35-.56.61-.96.79l1.68 2.96h-1.87l-1.42-2.67h-.93v2.67h-1.67zm1.67-4h.87c.44 0 .77-.1 1-.27.23-.2.35-.47.35-.83 0-.37-.12-.62-.35-.77a1.89 1.89 0 00-1-.21h-.87v2.08zM44.6 37.55v-7.41h4.64v1.4h-2.97v1.5h2.53v1.4h-2.53v1.7h3.09v1.41H44.6zM53.78 37.7a3.87 3.87 0 01-2.74-1.07l.96-1.16c.26.23.55.42.87.56.33.14.65.22.96.22.35 0 .6-.07.77-.2.18-.13.26-.3.26-.52a.59.59 0 00-.3-.51 13.97 13.97 0 00-.77-.38l-.96-.4a2.8 2.8 0 01-1.04-.72 2.1 2.1 0 01-.33-.57 2.07 2.07 0 01.61-2.3c.24-.2.52-.37.84-.48a3.4 3.4 0 013.46.8l-.86 1.07a3.06 3.06 0 00-.73-.44 2 2 0 00-.8-.16c-.3 0-.52.07-.7.19a.56.56 0 00-.25.49c0 .11.03.2.08.3.06.07.14.14.24.2a4.04 4.04 0 00.8.37l.96.39c.46.18.81.43 1.07.75.27.32.4.74.4 1.26a2.1 2.1 0 01-.74 1.62c-.23.2-.53.37-.88.5-.34.12-.74.18-1.18.18zM58.52 37.55v-7.41h2.55c.41 0 .8.04 1.15.12.36.08.67.21.93.4.27.18.48.43.63.74.16.3.24.68.24 1.13 0 .43-.08.8-.24 1.12-.15.32-.36.58-.63.79-.26.2-.57.35-.92.45-.35.1-.72.15-1.11.15h-.93v2.51h-1.67zm1.67-3.84h.82c.91 0 1.37-.4 1.37-1.18 0-.4-.12-.66-.37-.82a1.9 1.9 0 00-1.04-.24h-.78v2.24zM69 37.7a3.05 3.05 0 01-2.43-1.04 3.6 3.6 0 01-.7-1.22 5.13 5.13 0 01-.24-1.63c0-.6.08-1.14.24-1.61.17-.48.4-.88.7-1.2.29-.32.64-.57 1.05-.74.42-.17.88-.26 1.38-.26.5 0 .95.09 1.36.26.42.17.78.42 1.07.74.3.33.53.73.68 1.2.17.48.26 1.01.26 1.61 0 .6-.09 1.15-.26 1.63-.15.48-.38.88-.68 1.22-.3.33-.65.59-1.07.77-.4.17-.86.26-1.36.26zm0-1.45c.5 0 .9-.22 1.2-.65.3-.44.45-1.04.45-1.79 0-.74-.15-1.32-.45-1.74a1.4 1.4 0 00-1.2-.63c-.51 0-.91.21-1.2.63-.3.42-.45 1-.45 1.74 0 .75.15 1.35.44 1.79.3.43.7.65 1.2.65zM74.44 37.55v-7.41h1.72l1.93 3.68.73 1.64h.05l-.14-1.32a14.9 14.9 0 01-.07-1.39v-2.61h1.6v7.41h-1.72l-1.94-3.7-.72-1.6h-.05l.13 1.31c.05.47.08.93.08 1.37v2.62h-1.6zM84.96 37.7a3.88 3.88 0 01-2.74-1.07l.95-1.16c.27.23.56.42.88.56.32.14.64.22.95.22.35 0 .6-.07.78-.2.17-.13.26-.3.26-.52a.59.59 0 00-.3-.51 13.96 13.96 0 00-.77-.38l-.97-.4a2.8 2.8 0 01-1.04-.72 2.1 2.1 0 01-.33-.57 2.07 2.07 0 01.62-2.3c.23-.2.51-.37.83-.48a3.4 3.4 0 013.46.8l-.85 1.07a3.06 3.06 0 00-.73-.44 2 2 0 00-.81-.16c-.29 0-.52.07-.7.19a.56.56 0 00-.25.49c0 .11.03.2.08.3.07.07.14.14.24.2a4.04 4.04 0 00.81.37l.96.39c.45.18.8.43 1.07.75.26.32.4.74.4 1.26a2.1 2.1 0 01-.74 1.62c-.24.2-.53.37-.88.5-.35.12-.74.18-1.18.18zM89.7 37.55v-7.41h1.67v7.41H89.7zM95.09 37.55l-2.24-7.41h1.77l.89 3.46.3 1.19c.08.38.19.77.3 1.18h.05a67 67 0 00.59-2.37l.87-3.46h1.71l-2.23 7.41H95.1zM100.8 37.55v-7.41h4.65v1.4h-2.97v1.5H105v1.4h-2.52v1.7h3.08v1.41h-4.75zM110.68 37.55v-7.41h2.1c.56 0 1.08.07 1.53.21.46.15.85.37 1.17.67.33.3.58.68.75 1.14.18.46.27 1.01.27 1.65 0 .64-.1 1.2-.27 1.66-.17.47-.42.86-.73 1.17-.32.3-.7.54-1.15.69-.44.15-.94.22-1.48.22h-2.19zm1.67-1.35h.32c.32 0 .61-.04.87-.12.26-.09.48-.22.66-.4.18-.2.32-.44.42-.74.1-.3.16-.68.16-1.13 0-.44-.06-.8-.16-1.1a1.7 1.7 0 00-.42-.72c-.18-.18-.4-.31-.66-.39a3.06 3.06 0 00-.87-.11h-.31v4.71zM118.59 37.55v-7.41h4.64v1.4h-2.97v1.5h2.52v1.4h-2.52v1.7h3.08v1.41h-4.75zM127.77 37.7a3.88 3.88 0 01-2.74-1.07l.95-1.16c.27.23.56.42.88.56.32.14.64.22.95.22.35 0 .6-.07.78-.2.17-.13.26-.3.26-.52a.6.6 0 00-.3-.51 14.37 14.37 0 00-.77-.38l-.97-.4a3.02 3.02 0 01-1.03-.72 2.06 2.06 0 01.28-2.87c.23-.2.51-.37.83-.48a3.4 3.4 0 013.46.8l-.85 1.07a3.06 3.06 0 00-.73-.44 2 2 0 00-.81-.16c-.29 0-.52.07-.7.19a.56.56 0 00-.24.49c0 .11.02.2.08.3.06.07.14.14.23.2a4.1 4.1 0 00.81.37l.96.39c.45.18.81.43 1.07.75s.4.74.4 1.26a2.1 2.1 0 01-.74 1.62c-.24.2-.53.37-.88.5-.35.12-.74.18-1.18.18zM132.5 37.55v-7.41h1.68v7.41h-1.67zM139.89 37.7c-.5 0-.99-.09-1.43-.25a3.3 3.3 0 01-1.93-1.9 4.6 4.6 0 01-.27-1.66c0-.61.1-1.16.28-1.64a3.38 3.38 0 011.93-2c.45-.16.91-.25 1.4-.25.55 0 1 .1 1.4.3.38.2.7.42.94.67l-.88 1.07c-.19-.17-.39-.31-.6-.42a1.68 1.68 0 00-.8-.18 1.85 1.85 0 00-1.82 1.4c-.09.29-.13.62-.13 1 0 .76.17 1.36.5 1.78.36.42.88.63 1.58.63.15 0 .3-.02.44-.06a.9.9 0 00.36-.17v-1.28h-1.23v-1.36h2.7v3.41c-.25.25-.6.47-1.02.64-.42.17-.9.26-1.42.26zM144.55 37.55v-7.41h1.72l1.93 3.68.73 1.64h.05l-.14-1.32c-.05-.48-.07-.95-.07-1.39v-2.61h1.6v7.41h-1.72l-1.94-3.7-.73-1.6h-.04l.12 1.31c.06.47.08.93.08 1.37v2.62h-1.59z"
  />
  <path
    fill="#041E31"
    d="M0 1.44c0 .4.53.82 1.1 1.02 1.32.46 1.86.74 1.94 1.4.04.41.16 4.23.2 6.78.09 4.88 1.03 6.24 2.84 7.72 1.23.98 3.86 1.64 5.7 1.64 2.47 0 4.69-.66 5.92-1.64 2.38-1.85 2.75-4.48 3.04-7.89.2-2.46.33-4.68.37-5.83.04-1.44.45-1.56 1.89-2.1.7-.24 1.23-.7 1.23-1.18 0-.5-.62-.79-1.44-.79-.86 0-1.68.21-3.32.21-.95 0-1.81-.12-2.71-.12-.7 0-1.57.28-1.57.78 0 .61.7.9 1.32 1.15 1.31.49 1.68.9 1.77 2.46a60.2 60.2 0 01-.17 7.48c-.33 3.45-1.89 4.27-4.35 4.27a5.23 5.23 0 01-3-.95c-.74-.61-1.31-2.26-1.4-4.02-.12-2.75-.12-5.14-.08-7.4 0-1.3.41-1.3 1.4-1.76.82-.37 1.48-.58 1.48-1.15 0-.5-.46-.86-1.4-.86-1.03 0-2.14.12-3.5.12-1.63 0-4.6-.2-5.82-.2C.7.57 0 .93 0 1.43zM34.55.78c-3.2 0-4.52-.08-5.59-.74-.36-.2-1.06.41-1.06.7-.17.98-.62 4.76-.62 4.97 0 .45.45 1.27 1.23 1.27.25 0 .5-.24.82-.98.58-1.32 1.57-2.88 2.18-2.88.66 0 2.05.17 3 .17.29 0 .41.82.41 1.1 0 2.8-.16 8.3-.41 11.42-.04.53-.17.9-2.1 1.56-.65.2-1.27.74-1.27 1.11 0 .66.86.99 1.64.99.99 0 2.55-.13 3.62-.13 1.93 0 4.68.25 6.4.25.66 0 1.65-.33 1.65-.95 0-.61-.5-.94-1.44-1.27-1.72-.61-2.14-.94-2.18-1.6-.08-.99 0-9.03 0-12.11 0-.21.17-.37.3-.37 1.92 0 2.7-.13 3.11-.13.66 0 1.28.99 1.97 2.75.17.41.46.95.78.95.46 0 1.32-.58 1.32-1.32 0-.45-.13-3.57.04-4.76 0-.08-.37-1.03-1.03-.66-.65.37-1.19.66-6.45.66h-6.32zM63.19.12c-2.63 0-5.84.9-8.14 3a8.95 8.95 0 00-3.12 6.98c0 1.9.66 4.8 3.08 7.07 1.69 1.6 4.6 2.83 8.59 2.83.82 0 4.76-.45 7.35-2.55a9.13 9.13 0 003.61-7.68C74.56 4.9 70.33.12 63.2.12zm-.58 2.14c4.4 0 5.42 5.83 5.42 8 0 2.68-.37 4.65-1.1 5.84-.83 1.27-1.81 1.8-2.96 1.8-1.32 0-2.71-.77-3.74-2.21-.99-1.36-1.64-3.45-1.64-6.16 0-2.5.57-4.89 1.52-5.87 1.02-1.11 1.84-1.4 2.5-1.4zM88.78 10.76c-.33 0-.83-.12-1.2-.37-.24-.2-.32-.29-.36-.5-.25-.86-.17-5.54-.09-6.69 0-.16.25-.49.41-.53.2-.08.78-.16.99-.16.7 0 1.97.57 2.55 1.47.24.37.65 1.52.65 2.92 0 2.1-1.72 3.86-2.95 3.86zM78.06 1.72c0 .5.98.87 1.68 1 1.44.28 1.64.85 1.68 1.63.05 1.85 0 3.29 0 4.97 0 3.37-.08 5.26-.16 6.24-.08.99-.33 1.57-1.6 1.85-.9.2-1.48.66-1.48 1.07 0 .7.82.99 1.68.99 1.11 0 2.55-.13 3.62-.13.78 0 3.7.2 5.34.2.53 0 1.84-.2 1.84-.98 0-.45-.73-.9-1.3-1.07-1.86-.49-2.35-.86-2.23-2.91.04-.41.04-1.2.09-1.52 0-.08.12-.41.24-.41 1.07.12 2.18.25 2.5.25 1.94 0 4.36-.95 5.39-1.81a6.1 6.1 0 002.13-4.52c0-1.6-.82-3.24-2.22-4.43-1.19-.99-3.7-1.65-6.57-1.65-1.23 0-4.88.2-6.36.2-.86 0-1.6.05-2.42.05-.83 0-1.85.16-1.85.98zM111.72 19.47c.5 0 1.28-.46 1.28-.99 0-.25-.5-.9-1.28-1.15-1.23-.41-1.52-.62-1.56-2.22-.04-.86-.16-5.62-.16-7.92l-.04-3.33c0-.53.49-.86 1.84-1.31.58-.2 1.24-.46 1.24-1.11 0-.54-.74-.87-1.6-.87-1.11 0-3 .21-4.24.21-1.23 0-3.94-.12-4.27-.12-1.02 0-1.6.28-1.6.94 0 .58.82.86 1.44 1.11.82.33 1.4.86 1.44 1.73v3.53c0 1.31-.09 6.4-.13 7.1-.16 1.6-.49 1.8-1.97 2.34-.82.29-1.27.78-1.27 1.28 0 .49.94.82 1.64.82.78 0 3.29-.17 4.52-.17 1.4 0 3 .13 4.72.13zM129.18.12c-.37 0-.82.25-1.28.66a7.13 7.13 0 01-2.09 1.2c-.29.07-.62.65-.74.94-.29.78-.33.94-.86 2.17-1.56 3.66-3.4 7.85-4.48 9.82-.65 1.23-1.15 2.13-2.75 2.58-.86.25-1.44.62-1.44 1 0 .48.66 1.06 1.48 1.06 1.28 0 2.84-.2 3.9-.2 1.32 0 1.36.12 2.6.12.6 0 1.3-.25 1.3-.83 0-.57-.32-.73-1.27-1.19-.82-.37-1.31-.57-1.31-1.27 0-.37.2-.78.37-1.1.12-.21.45-.42.74-.5.4-.08 1.52-.12 2.67-.12 1.19 0 2.21 0 2.67.12.16.04.32.12.49.33.2.24.5 1.19.5 1.43.03.42-.13.79-1.28 1.28-.54.2-.95.66-.95 1.15 0 .4.58.7 1.44.7 1.52 0 2.05-.13 3.16-.13 1.56 0 3.99.2 6.12.2.7 0 1.28-.73 1.28-1.06 0-.5-.21-.78-.99-1.03-1.8-.57-2.14-1.1-2.88-2.62-.94-2.02-4.3-10.27-4.92-11.7-.3-.67-.5-1.4-.66-2.19-.08-.4-.53-.82-.82-.82zm-2.88 6.86c.45.78 1.65 3.78 1.85 4.68.04.2-.04.3-.29.37-.2.09-.98.13-1.64.13-.78 0-1.64.04-1.93-.04-.16-.05-.45-.3-.45-.37.16-.74 1.56-4.32 1.89-4.77.16-.24.4-.29.57 0zM146.62 12.16a3.9 3.9 0 00-3.61 3.9c0 2.05 1.52 3.94 3.7 3.94 2.09 0 3.7-1.77 3.7-3.9a3.91 3.91 0 00-3.79-3.94z"
  />
</svg>