<?xml version="1.0" encoding="UTF-8"?>
<svg id="a" data-name="Layer 1" xmlns="http://www.w3.org/2000/svg" viewBox="0 0 761.74 1000">
  <path d="M205.09,36.48c8.46,2.15,16.17,7.22,20.02,15.26.96,2.01,3.02,7.93,3.02,9.94v216.72l306.24-.48V60.72c0-1.28,1.82-6.65,2.47-8.09,3.85-8.57,11.65-13.94,20.57-16.15h61.92c9.23,2.4,17.09,7.95,20.73,16.95.7,1.73,2.31,6.62,2.31,8.25v215.76h33.84c14.01,0,29.49,15.68,30.42,29.58.71,63.49-.74,127.02.05,190.51.01.81-.31,2.13.49,2.63v183.84c-1.02,3.01-.3,6.64-.48,9.84-8.33,142.57-129.91,265.53-271.44,278.64l-16.56,1.44h-75.36l-16.5-1.5c-146.85-15.23-265.31-140.71-271.04-288.64-2.01-51.95.19-104.87-.45-156.99-.01-.81.31-2.13-.49-2.63v-217.44c1.61-3.04,1.99-6.46,3.58-9.62,8.36-16.7,22.65-18.24,39.36-18.72,7.43-.21,14.91.2,22.34.02V61.2c0-.81.99-4.36,1.31-5.41,3.08-10.13,11.65-16.89,21.73-19.31h61.92Z" fill="#f9f9f9"/>
</svg>