<?xml version="1.0" encoding="UTF-8"?>
<svg id="a" data-name="Layer 1" xmlns="http://www.w3.org/2000/svg" viewBox="0 0 1000 1000">
  <path d="M499.98,27.23c-45.11,0-88.73,6.33-130.09,18.12-.35,23.71-8.73,48.38-27.69,72.49-45.06,57.34-135.15,84.32-204.01,97.47,42.18,39.34,88.38,74.06,134.71,108.3l2.23.04c26.73-39.56,51.62-5.24,75.59,13.14,5.37,4.15,13.19,5.59,12.97,13.19,7.21-7.69,15.81-13.84,24.94-19.04,39.78-22.49,89.17-25.76,132.79-13.14,44.67,12.93,73.93,45.28,109.74,72.44,4.24,3.19,16.2,13.14,20.09,14.5,3.49,1.22,10-2.79,13.93-3.27,8.25-1.09,15.46,2.58,22.31,6.77,9.91,6.07,30.96,23.71,29.17,36.33-1.55,10.94-18.58,33.73-35.52,54.64,1.21.89,2.3,1.91,3.25,3.03,0,0,.02.01.02.02l1.72-2.24,112.79,87.99c13.19,17.38-.04,42.71-21.83,41.83-15.28-.61-52.93-31.48-65.94-41.96-18.72-15.07-36.76-31.24-54.62-47.34-2.34-1.05-4.28-2.54-5.93-4.28-.2.26-.48.6-.67.84-33.69,43.38-67.73,86.24-101.66,129.28,1.15,1.56,2.11,3.24,2.89,5.02l2.05-2.73,110.87,87.9c15.24,19.91-.26,47.86-25.76,42.58-18.38-3.84-60.61-41.13-76.33-54.54-13.32-11.4-25.72-24.32-40.3-34.06l.82-1.09c-2.37-.44-4.53-1.15-6.49-2.11-.7.89-1.4,1.78-2.1,2.67-18.47,23.76-29.13,54.5-64.41,31.96-5.2-3.27-19.82-14.41-22.93-18.95-6.24-9.08-2.62-22.97-6.33-33.49l-4.72,1.66c-22.84-20.61-49.43-37.34-72.75-57.2-59.43-50.65-72.36-130.87-46.77-203.06.52-4.02-6.55-10.04-9.78-12.79-13.54-11.53-43.49-23.71-43.36-44.58,0-3.49,3.19-8.82,1.09-11.57-19.65-14.85-39.74-29.3-59.17-44.54-25.63-20.09-55.55-44.19-83.8-71.09-46.68,73.27-73.76,160.3-73.76,253.67,0,261.09,211.66,472.75,472.75,472.75s472.79-211.66,472.79-472.75S761.07,27.23,499.98,27.23Z" fill="#fff"/>
</svg>