<?xml version="1.0" encoding="UTF-8"?>
<svg id="a" data-name="Layer 1" xmlns="http://www.w3.org/2000/svg" viewBox="0 0 1000 1071.91">
  <path d="M506.84,51.98l413.03,242.61.07,485.53-417.79,239.8-422.09-236.89v-487.36L504.15,51.98h2.69ZM523,836.88v92.9l329.63-188.7-.43-407.74-346.22-202.99-356.43,203.15-2.23,4.5.73,406.01,327.19,184.41,2-1.98v-90.9c15.06,5.41,30.39,5.39,45.77,1.34Z"/>
  <g>
    <rect x="258.97" y="434.18" width="482.28" height="68.57" transform="translate(-2.14 2.29) rotate(-.26)"/>
    <path d="M693.79,547.62c.48,13.17.05,26.39.13,39.58.45,67.6-.81,120.37-55.12,168.25-84.99,74.93-233.18,67.92-302.15-25.04-40.9-55.14-28.66-118.49-30.42-182.99l387.56.2ZM536.71,638.17c0-20.29-16.45-36.74-36.74-36.74s-36.74,16.45-36.74,36.74,16.45,36.74,36.74,36.74,36.74-16.45,36.74-36.74Z"/>
  </g>
  <g>
    <rect x="563.9" y="294.17" width="57.89" height="118.54"/>
    <path d="M380.8,412.65l-.65-119.84c15.09,2.47,30.51,3.22,45.81,2.77,3.15-.09,8.93-2.88,10.79-.13l-.68,112.55-2.09,4.64h-53.18Z"/>
  </g>
</svg>