<?xml version="1.0" encoding="UTF-8"?>
<svg id="a" data-name="Layer 1" xmlns="http://www.w3.org/2000/svg" viewBox="0 0 1000 1000">
  <path d="M93.39,690.56c1.74-2.79,1.11-6.76,1.44-9.84,10.11-94.34,110.21-197.73,205.59-130.71,52.29,36.74,78.11,109.93,92.26,169.82,1.84,7.81,2.96,16.69,5.06,24.22.12.43.27,1.42.94.99,36.31-39.21,68.56-81.91,100.21-124.91,1.08-2.99-3.14-4.3-5.18-6.13-29.1-26.12,4.25-47.63,19.22-69.11,2.96-4.25,3.95-9.42,10.06-10.57-35.47-37.47-43.34-95.71-30.2-144.44,11.18-41.45,40.12-69.27,65.7-101.82,3.13-3.98,15.98-19.52,16.71-23.13.85-4.2-2.54-8.48-3.13-12.5-2.26-15.48,20.42-43.56,34.65-48.14,7.85-2.53,15.75,2.59,22.3,6.55,12.76,7.7,25.58,18.2,37.23,27.57,73.32,58.96,146.5,118.34,222.02,174.46,12.04,10.82,14.31,21.47,6.96,36.26-3.47,6.99-16.89,25.55-23.78,28.54-8.52,3.7-19.4,1.3-28.31,4.09-.08,1.83,1.6,3.44.72,5.27-27.35,29.82-46.26,67.73-79.29,92.08-45.75,33.73-102.02,37.76-155.67,22.41-7.14-2.04-8.65-5.24-15.13.23-14.25,12.02-26.21,48.48-48.47,46.57-2.88-.25-7.38-2.76-9.88-.75-26.68,35.97-53.42,72.02-82.75,105.89-37.43,43.21-87.45,93.59-141.73,114.11-14.12,5.34-26.24,6.54-40.62,9.78-.79.18-1.66.19-2.22.9h-23.52c-5.41-1.3-10.97-1.83-16.41-3.03-63.58-14.03-118.3-76.37-131.76-138.96-1.14-5.29-1.61-10.72-3.03-15.93v-29.76ZM232.5,574.54c-53.72,3.99-89.11,70.6-93.02,118.66-4.32,53.08,27.14,102.75,73.11,127.52,53.4,28.77,104.22-1.36,145.34-35.83.53-.79-.85-8.73-1.09-10.49-4.79-34.21-13.49-70.51-25.96-102.68-15.15-39.1-48.8-100.86-98.38-97.18Z"/>
  <g>
    <path d="M945.87,266.72c.25,2.26.25,7.34,0,9.6-1.14,10.08-15.91,29.46-22.37,37.87-8.89,11.58-18.71,23.08-28.26,34.14-10.9,12.63-23.09,24.23-32.4,38.17l-1.43-.02-38.34-29.68,82.52-104.22c13.09-11.32,38.3-3.52,40.29,14.13Z"/>
    <path d="M766.83,121.76c11.95,3.04,21.8,14.12,20.04,27s-23.14,40.09-31.85,51.19c-16.68,21.26-34.74,41.39-52.8,61.47l-37.44-29.29,80.94-103.88c2.11-2.73,4.93-4.08,8.01-5.43l3.5-1.07h9.6Z"/>
  </g>
</svg>