<?xml version="1.0" encoding="UTF-8"?>
<svg id="a" xmlns="http://www.w3.org/2000/svg" version="1.1" viewBox="0 0 761.7 1000">
  <!-- Generator: Adobe Illustrator 29.3.1, SVG Export Plug-In . SVG Version: 2.1.0 Build 151)  -->
  <defs>
    <style>
      .st0 {
        fill: #fff;
      }
    </style>
  </defs>
  <g id="b">
    <g>
      <path class="st0" d="M711.5,239.3v-3.8h0v-2.4c0-1.2,0-2.3-.2-3.4v-1.1c-.2-3.2-.3-5.9-.5-8.2-.3-3.5-1-6.9-2.1-10.3-.5-1.7-1.2-3.3-1.9-5-.3-.7-.6-1.3-.9-1.9-1.3-2.6-2.7-5.1-4.4-7.4-.8-1.2-1.7-2.3-2.6-3.4-.2-.3-.5-.5-.7-.8-.7-.8-1.4-1.6-2.2-2.4-.2-.3-.5-.5-.8-.8-2-2-4.3-3.8-6.6-5.4-.6-.4-1.2-.8-1.8-1.2s-.6-.4-.9-.5c-.6-.4-1.2-.7-1.8-1s-1.3-.6-1.9-.9c-1.3-.6-2.6-1.1-3.9-1.5-3.7-1.2-7.6-1.9-11.6-1.9h-85.2v-109.8c0-.5-2.9-7.5-3.5-8.7-14.4-29.7-64.7-30.2-79.6-.8,0,0-.2.3-.3.5,0,0-.2.3-.2.5s-.2.3-.2.5c-.4.8-.8,1.7-1.2,2.7-.1.3-.2.5-.3.8-.9,2.1-1.8,4.2-1.8,4.5v109.8h-224.8v-104.4c0-27.6-33.4-41.3-58.4-34.9-.5,0-1,.3-1.5.4-3.5,1-6.8,2.5-9.8,4.3-.5.3-.9.6-1.4,1-1.2.9-2.5,2-3.9,3.3-.3.3-.5.5-.8.8s-.5.5-.8.8-.5.6-.8.8c-.3.3-.5.6-.8.9-.5.6-1,1.2-1.5,1.8h0c-.5.6-1,1.2-1.5,1.9-2.2,2.9-4.1,6-5.5,9-.3.7-.6,1.3-.8,1.9-.1.3-.2.6-.3,1-.5,1.6-.8,3.1-.8,4.5v107.1h-30.9c-3.1,0-6.2,0-9.3-.1h-.1c-7.7,0-15.4,0-23,.1-9,.2-25.8.1-34.2,1.7-.3,0-.5.1-.8.2-1.5.3-3,.7-4.5,1.2-2,.7-3.9,1.5-5.8,2.5-.9.5-1.8,1-2.7,1.5-4.1,2.5-7.8,5.6-11,9.2-.7.8-1.4,1.6-2,2.4h0c-1.3,1.7-2.5,3.4-3.6,5.2l-.3.3c-.5.5-1.3,3.5-1.9,3.9s0,0,0,0c-1.1,2.4-2,4.8-2.6,7.4-3.9,15.8-3.8,81,0,97,.9,3.8,2.3,7.4,4.1,10.7.6,1.1,1.2,2.2,1.9,3.2s1.4,2,2.1,3h0c1.1,1.5,2.4,2.9,3.7,4.2,8.2,8.3,19.6,13.5,31.8,14.3h573.8c1.2,0,2.5-.2,3.7-.4h0c1.2-.2,2.5-.4,3.7-.7h0c1.2-.3,2.4-.6,3.6-.9.6-.2,1.2-.4,1.8-.5,1.8-.6,3.5-1.3,5.2-2h0c5.6-2.5,10.7-6.1,14.9-10.5,5-5.3,8.8-11.7,10.7-19.1.3-1.2.6-2.6.9-4.2,0-.7.2-1.4.3-2.1.2-1.3.3-2.7.5-4.2,0-1.4.3-2.8.4-4.4v-.2c1.3-15.9,1.4-38.4.9-55.5h-.8ZM713,391.5h0c-2.4-8.8-3.7-18.4-12.3-23.2l-636.4-.7c-10.1,4-14.3,16.3-16,26.3-2,12.2.4,23.6,0,35.6-1.7,66.1-8.3,134.4,4.7,199.9,17.2,87.2,80.4,156.2,164.6,183.1,11.6,3.7,29.6,5.4,38.9,13,9,7.3,10.9,23,19.5,30.9,9.5,8.6,29,9.8,41.4,10.4,40.9,2,97.1,2.6,137.7,0,11.5-.7,24.1-2.7,31.9-11.7,12.3-14.1,6-25.5,28.4-33,45.4-15.4,70.2-18.9,108.6-52.3,117.6-102.4,91.3-237.9,88.9-378.2h.1ZM224.6,605.7c-38.4,0-69.4-31.1-69.4-69.5s31.1-69.5,69.4-69.5,69.5,31.1,69.5,69.5-31.1,69.5-69.5,69.5ZM296.5,711.3h163.4c5.2,0,7.7,6.5,3.7,9.9-72.9,62.3-143.7,20.2-170.3-.4-4-3.1-1.8-9.5,3.3-9.5h0ZM537.5,605.6c-38.4,0-69.5-31.2-69.5-69.6s31.1-69.6,69.5-69.6,69.5,31.2,69.5,69.6-31.1,69.6-69.5,69.6Z"/>
      <g>
        <path class="st0" d="M269.1,176.2h224.9v-109.8c0-.6,3.3-8.2,4-9.6,14.9-29.3,65.3-28.8,79.6.8.6,1.3,3.5,8.3,3.5,8.7v109.8h85.2c23.4,0,42.2,22.3,44.3,44.4,1.7,18.4,2.2,72.9-2,89.4-5,19.8-23.6,32.8-43.6,34.2H91.2c-20.6-1.4-38.8-15.1-43.6-35.5-3.8-16-3.9-81.2,0-97,4-16.1,18.2-30.2,34.5-33.7,8.1-1.7,25.7-1.6,35-1.8,21.1-.6,42.3.6,63.4,0v-107.1c0-8.8,11.5-22.9,18.9-27.5,24.6-15.2,69.7-1.8,69.7,30.2v104.4h0Z"/>
        <path class="st0" d="M713,391.5h0c-2.4-8.8-3.7-18.4-12.3-23.2l-636.4-.7c-10.1,4-14.3,16.3-16,26.3-2,12.2.4,23.6,0,35.6-1.7,66.1-8.3,134.4,4.7,199.9,17.2,87.2,80.4,156.2,164.6,183.1,11.6,3.7,29.6,5.4,38.9,13,9,7.3,10.9,23,19.5,30.9,9.5,8.6,29,9.8,41.4,10.4,40.9,2,97.1,2.6,137.7,0,11.5-.7,24.1-2.7,31.9-11.7,12.3-14.1,6-25.5,28.4-33,45.4-15.4,70.2-18.9,108.6-52.3,117.6-102.4,91.3-237.9,88.9-378.2h.1ZM224.6,605.7c-38.4,0-69.4-31.1-69.4-69.5s31.1-69.5,69.4-69.5,69.5,31.1,69.5,69.5-31.1,69.5-69.5,69.5ZM282.1,711.3h192.2c-96.2,96-192.2,0-192.2,0h0ZM537.5,605.6c-38.4,0-69.5-31.2-69.5-69.6s31.1-69.6,69.5-69.6,69.5,31.2,69.5,69.6-31.1,69.6-69.5,69.6Z"/>
        <rect class="st0" x="279.1" y="925.8" width="207.6" height="39.2" rx="15.8" ry="15.8"/>
        <rect class="st0" x="268.4" y="877.4" width="228.9" height="39.2" rx="15.8" ry="15.8"/>
      </g>
    </g>
  </g>
</svg>